<?xml version="1.0" encoding="utf-8"?>
<!-- Generator: Adobe Illustrator 22.1.0, SVG Export Plug-In . SVG Version: 6.00 Build 0)  -->
<svg version="1.1" id="Layer_1" xmlns="http://www.w3.org/2000/svg" xmlns:xlink="http://www.w3.org/1999/xlink" x="0px" y="0px"
	 viewBox="0 0 762.9 327.3" style="enable-background:new 0 0 762.9 327.3;" xml:space="preserve">
<style type="text/css">
	.st0{fill:#FFFFFF;}
</style>
<path class="st0" d="M164.8,31.5h24.1v191.6h-24.1V31.5z M550.2,126.8v-24.1H514h-24.1v24.1v96.4H514v-96.4H550.2z M147.2,162.9
	c0,33.2-27,60.2-60.2,60.2c-13.6,0-26.1-4.6-36.1-12.2v12.2H26.8v-60.2c0,0,0,0,0,0c0,0,0,0,0,0V31.7h24.1v83.2
	c10.1-7.6,22.6-12.2,36.1-12.2C120.2,102.7,147.2,129.7,147.2,162.9z M123.1,162.9c0-19.9-16.2-36.1-36.1-36.1
	c-19.9,0-36.1,16.2-36.1,36.1v0.1c0,19.9,16.2,36.1,36.1,36.1C106.9,199,123.1,182.8,123.1,162.9z M736.6,162.9
	C736.6,162.9,736.6,162.9,736.6,162.9l0,132.1h-24.1v-84c-10.1,7.6-22.6,12.2-36.1,12.2c-33.2,0-60.2-27-60.2-60.2
	s27-60.2,60.2-60.2c13.6,0,26.1,4.6,36.1,12.2v-12.2h24.1L736.6,162.9C736.6,162.9,736.6,162.9,736.6,162.9z M712.6,162.9
	c0-19.9-16.2-36.1-36.1-36.1c-19.9,0-36.1,16.2-36.1,36.1s16.2,36.1,36.1,36.1C696.3,199,712.5,182.8,712.6,162.9L712.6,162.9z
	 M333.5,162.9v-60.2h-24.1v60.2h0c0,19.9-16.2,36.1-36.1,36.1s-36.1-16.2-36.1-36.1v-60.2H213v60.2c0,33.2,27,60.2,60.2,60.2
	C306.4,223.1,333.5,196.1,333.5,162.9 M471.2,156.9c-3-30.4-28.7-54.2-59.9-54.2c-33.2,0-60.2,27-60.2,60.2s27,60.2,60.2,60.2V199
	c-19.9,0-36.1-16.2-36.1-36.1c0-19.9,16.2-36.1,36.1-36.1c17.9,0,32.7,13.1,35.6,30.1h-35.5V181h57.3
	C472.8,168.9,471.2,156.9,471.2,156.9 M574.7,102.7h24.1V78.6h-24.1V102.7z M598.8,126.8h-24.1v96.4h24.1V126.8z"/>
</svg>
