<svg xmlns="http://www.w3.org/2000/svg" viewBox="0 0 163 163">
  <defs>
    <style>
      .cls-1 {
        fill: #fff;
      }

      .cls-2 {
        fill: #0077e5;
      }
    </style>
  </defs>
  <g id="Oops-icon" transform="translate(-508 -212)">
    <circle id="Ellipse_1" data-name="Ellipse 1" class="cls-1" cx="81.5" cy="81.5" r="81.5" transform="translate(508 212)"/>
    <g id="server_1_" data-name="server (1)" transform="translate(546 252)">
      <path id="Path_96" data-name="Path 96" class="cls-2" d="M52.81,34A18.81,18.81,0,1,0,71.62,52.81,18.832,18.832,0,0,0,52.81,34Zm0,34.726A15.916,15.916,0,1,1,68.726,52.81,15.935,15.935,0,0,1,52.81,68.726Z" transform="translate(15.195 15.195)"/>
      <path id="Path_97" data-name="Path 97" class="cls-2" d="M56.505,42.182a1.445,1.445,0,0,0-2.046,0L49.343,47.3l-5.116-5.115a1.447,1.447,0,0,0-2.046,2.046L47.3,49.343l-5.116,5.115A1.447,1.447,0,1,0,44.227,56.5l5.116-5.115L54.46,56.5a1.447,1.447,0,0,0,2.046-2.046l-5.116-5.115,5.116-5.115A1.448,1.448,0,0,0,56.505,42.182Z" transform="translate(18.662 18.662)"/>
      <path id="Path_98" data-name="Path 98" class="cls-2" d="M80.147,0H6.667A6.675,6.675,0,0,0,0,6.667V23.716a6.529,6.529,0,0,0,1.208,3.775h84.4a6.519,6.519,0,0,0,1.21-3.774V6.667A6.675,6.675,0,0,0,80.147,0ZM15.193,21.7A6.511,6.511,0,1,1,21.7,15.193,6.519,6.519,0,0,1,15.193,21.7Zm34-7.235a1.447,1.447,0,1,1,1.447-1.447A1.447,1.447,0,0,1,49.195,14.469Zm2.894,4.341a1.447,1.447,0,1,1,1.447-1.447A1.447,1.447,0,0,1,52.089,18.81Zm2.894-4.341a1.447,1.447,0,1,1,1.447-1.447A1.447,1.447,0,0,1,54.983,14.469Zm2.894,4.341a1.447,1.447,0,1,1,1.447-1.447A1.447,1.447,0,0,1,57.876,18.81Zm2.894-4.341a1.447,1.447,0,1,1,1.447-1.447A1.447,1.447,0,0,1,60.77,14.469Zm2.894,4.341a1.447,1.447,0,1,1,1.447-1.447A1.447,1.447,0,0,1,63.664,18.81Zm2.894-4.341A1.447,1.447,0,1,1,68,13.022,1.447,1.447,0,0,1,66.558,14.469Zm2.894,4.341A1.447,1.447,0,1,1,70.9,17.363,1.447,1.447,0,0,1,69.452,18.81Zm2.894-4.341a1.447,1.447,0,1,1,1.447-1.447A1.447,1.447,0,0,1,72.346,14.469Zm2.894,4.341a1.447,1.447,0,1,1,1.447-1.447A1.447,1.447,0,0,1,75.239,18.81Z"/>
      <path id="Path_99" data-name="Path 99" class="cls-2" d="M44.854,50.128A22.961,22.961,0,0,1,47.22,40H1.208A6.528,6.528,0,0,0,0,43.774V60.822a6.675,6.675,0,0,0,6.667,6.669H52.743A23.082,23.082,0,0,1,44.854,50.128ZM15.193,58.81A6.511,6.511,0,1,1,21.7,52.3,6.519,6.519,0,0,1,15.193,58.81Z" transform="translate(0 17.876)"/>
      <path id="Path_100" data-name="Path 100" class="cls-2" d="M1.208,21A6.528,6.528,0,0,0,0,24.774V41.822A6.529,6.529,0,0,0,1.208,45.6h47.67a23.1,23.1,0,0,1,37.371-1.175,6.418,6.418,0,0,0,.564-2.6V24.774A6.525,6.525,0,0,0,85.605,21ZM15.193,39.81A6.511,6.511,0,1,1,21.7,33.3,6.519,6.519,0,0,1,15.193,39.81Zm34-7.235a1.447,1.447,0,1,1,1.447-1.447A1.447,1.447,0,0,1,49.195,32.575Zm5.788,0a1.447,1.447,0,1,1,1.447-1.447A1.447,1.447,0,0,1,54.983,32.575Zm5.788,0a1.447,1.447,0,1,1,1.447-1.447A1.447,1.447,0,0,1,60.77,32.575Zm5.788,0A1.447,1.447,0,1,1,68,31.128,1.447,1.447,0,0,1,66.558,32.575Zm5.788,0a1.447,1.447,0,1,1,1.447-1.447A1.447,1.447,0,0,1,72.346,32.575Z" transform="translate(0 9.385)"/>
    </g>
  </g>
</svg>
